HIERARCHY
ROOT reference
{
	OFFSET 0.000000 0.000000 0.000000
	CHANNELS 6 Xposition Yposition Zposition Xrotation Yrotation Zrotation
	JOINT root
	{
		OFFSET 0.000000 89.713997 0.000000
		CHANNELS 3 Xrotation Yrotation Zrotation
		JOINT Hips
		{
			OFFSET 0.000000 0.000000 0.000000
			CHANNELS 3 Xrotation Yrotation Zrotation
			JOINT Spine
			{
				OFFSET 0.015203 -0.106537 0.014789
				CHANNELS 3 Xrotation Yrotation Zrotation
				JOINT Spine1
				{
					OFFSET -3.936841 17.402596 -5.113210
					CHANNELS 3 Xrotation Yrotation Zrotation
					JOINT Spine2
					{
						OFFSET -3.936780 16.906998 -6.575050
						CHANNELS 3 Xrotation Yrotation Zrotation
						JOINT Neck
						{
							OFFSET -5.972202 14.861298 -9.379800
							CHANNELS 3 Xrotation Yrotation Zrotation
							JOINT Head
							{
								OFFSET -3.780391 8.206940 -7.165619
								CHANNELS 3 Xrotation Yrotation Zrotation
								End Site
								{
									OFFSET 0.000000 0.100006 0.000000
								}
							}
						}
						JOINT RightShoulder
						{
							OFFSET -3.369632 14.332397 -11.871703
							CHANNELS 3 Xrotation Yrotation Zrotation
							JOINT RightArm
							{
								OFFSET 10.230198 -4.115265 -11.705299
								CHANNELS 3 Xrotation Yrotation Zrotation
								JOINT RightForearm
								{
									OFFSET -1.204574 -10.985001 -27.249599
									CHANNELS 3 Xrotation Yrotation Zrotation
									JOINT RightHand
									{
										OFFSET -11.702304 -1.528481 -21.957203
										CHANNELS 3 Xrotation Yrotation Zrotation
										End Site
										{
											OFFSET 0.000000 0.099998 0.000000
										}
									}
								}
							}
						}
						JOINT LeftShoulder
						{
							OFFSET -8.582352 15.377304 -6.898667
							CHANNELS 3 Xrotation Yrotation Zrotation
							JOINT LeftArm
							{
								OFFSET -10.923197 1.679230 11.682000
								CHANNELS 3 Xrotation Yrotation Zrotation
								JOINT LeftForearm
								{
									OFFSET 0.717096 -15.933899 24.703499
									CHANNELS 3 Xrotation Yrotation Zrotation
									JOINT LeftHand
									{
										OFFSET -7.206953 -19.199799 -14.171398
										CHANNELS 3 Xrotation Yrotation Zrotation
										End Site
										{
											OFFSET 0.000000 0.099998 0.000000
										}
									}
								}
							}
						}
					}
				}
			}
			JOINT RightUpLeg
			{
				OFFSET 7.388800 0.243271 -6.058500
				CHANNELS 3 Xrotation Yrotation Zrotation
				JOINT RightLeg
				{
					OFFSET 3.282078 -41.939499 -16.047001
					CHANNELS 3 Xrotation Yrotation Zrotation
					JOINT RightFoot
					{
						OFFSET 1.496512 -39.712399 10.782498
						CHANNELS 3 Xrotation Yrotation Zrotation
						JOINT RightToe
						{
							OFFSET 3.136249 -7.174790 -16.211903
							CHANNELS 3 Xrotation Yrotation Zrotation
							End Site
							{
								OFFSET 0.000000 0.100000 0.000000
							}
						}
					}
				}
			}
			JOINT LeftUpLeg
			{
				OFFSET -7.388800 -0.243279 6.058500
				CHANNELS 3 Xrotation Yrotation Zrotation
				JOINT LeftLeg
				{
					OFFSET -21.948999 -39.140800 -3.666056
					CHANNELS 3 Xrotation Yrotation Zrotation
					JOINT LeftFoot
					{
						OFFSET -2.933899 -39.020802 12.819502
						CHANNELS 3 Xrotation Yrotation Zrotation
						JOINT LeftToe
						{
							OFFSET -12.654602 -11.133300 -6.328578
							CHANNELS 3 Xrotation Yrotation Zrotation
							End Site
							{
								OFFSET 0.000000 0.100000 0.000000
							}
						}
					}
				}
			}
		}
	}
}
MOTION
Frames: 16
Frame Time: 0.041667
25.904993 0.000000 -52.528107 -0.000000 0.000000 -0.000000 1.710088 -12.027184 2.015869 -0.114632 -0.043344 -0.141524 0.710377 2.082596 0.664080 0.878165 2.978637 0.482004 0.516669 2.077344 0.020452 -0.839628 0.711981 -0.442126 -1.349478 1.456703 -0.903501 -0.066338 -1.967655 0.501500 -3.869095 1.413338 -1.515617 0.357275 0.521345 -0.227834 0.541119 -0.193476 0.462832 0.157842 -1.061003 0.392256 0.630497 -0.290606 -0.318781 -0.759987 0.181241 0.140762 0.004035 -0.347690 -0.225476 -19.420272 5.807000 -6.372245 -12.294709 -0.583520 -0.828117 -23.763382 4.051129 -14.561010 42.923774 18.439110 25.764232 25.420373 11.650888 21.111514 8.363432 -4.686994 -9.728968 -9.357211 1.876276 -8.189902 -20.699674 -1.395591 5.199374 
26.891191 0.000000 -55.767208 -0.000000 0.000000 -0.000000 1.413441 -11.687201 1.566841 -0.014703 -0.005701 -0.018158 0.751014 1.974849 0.695958 0.931243 2.890806 0.527453 0.556344 2.024194 0.058231 -0.850760 0.629523 -0.400567 -1.381846 1.292001 -0.859313 -0.061575 -1.976349 0.507906 -3.944716 0.970647 -1.298766 0.392995 0.573210 -0.250713 0.539698 -0.186584 0.451200 0.135589 -1.055192 0.368280 0.663979 -0.230126 -0.093686 -0.731785 0.174552 0.135499 -0.018532 -0.305529 -0.215620 -19.169209 6.011235 -5.659876 -13.196359 -0.619113 -0.893463 -31.837947 6.466914 -16.194805 42.807230 18.802684 31.195844 24.394685 10.903708 21.596420 8.102615 -4.511979 -9.421548 -9.585488 1.661147 -10.245847 -20.862722 -1.418869 5.093013 
27.384993 0.000000 -58.444508 -0.000000 0.000000 -0.000000 1.339595 -11.199407 1.490749 0.007862 0.002984 0.009708 0.725305 1.851323 0.655273 0.899635 2.723113 0.493812 0.538723 1.907149 0.052000 -0.891705 0.534083 -0.356243 -1.469588 1.104460 -0.826867 -0.067633 -1.997549 0.508458 -3.906793 0.562462 -1.016878 0.455266 0.663534 -0.290650 0.532873 -0.168578 0.454593 0.097778 -1.051225 0.328792 0.722597 -0.282091 0.209840 -0.637997 0.152284 0.118020 -0.016865 -0.299163 -0.211763 -17.936541 5.528810 -4.909726 -15.487063 -0.704837 -1.061919 -40.266339 10.291138 -18.247383 38.636898 14.553922 38.204185 23.348865 10.121417 21.717649 7.801924 -4.312655 -9.067501 -10.015495 1.536659 -11.797547 -21.043758 -1.444349 4.974889 
29.276993 0.000000 -62.063606 -0.000000 0.000000 -0.000000 1.556496 -10.578066 1.765389 -0.140985 -0.053836 -0.174075 0.552254 1.722820 0.553658 0.681465 2.438592 0.416489 0.396611 1.701735 0.031023 -0.890541 0.470412 -0.206391 -1.531869 0.937811 -0.569972 -0.103919 -2.004459 0.479391 -3.343547 0.140377 -0.621498 0.377595 0.550847 -0.240844 0.434017 -0.176462 0.305164 -0.018413 -1.187194 0.238869 0.906826 -0.574893 0.874299 -0.201513 0.048253 0.037098 0.002560 -0.341747 -0.174287 -12.724426 2.224186 -2.638752 -23.066865 -0.939320 -1.641148 -47.651552 13.328108 -20.096590 28.288900 -1.428645 38.923619 21.609849 9.934015 21.076620 6.698127 -3.603207 -7.771294 -9.181667 0.629929 -14.072697 -21.453959 -1.500693 4.707002 
30.379688 0.000000 -63.701309 -0.000000 0.000000 -0.000000 1.614815 -10.305932 1.815070 -0.135301 -0.051672 -0.167057 0.455455 1.571984 0.459683 0.553312 2.209162 0.322275 0.313906 1.534388 -0.008023 -0.922609 0.491580 -0.100416 -1.638511 0.941382 -0.382949 -0.065506 -1.887956 0.480695 -3.113800 0.059872 -0.577521 0.334038 0.487570 -0.212940 0.423700 -0.210884 0.296514 -0.036344 -1.113079 0.205040 0.956148 -0.821398 1.295212 0.020425 -0.004907 -0.003757 -0.001604 -0.430675 -0.196038 -9.562852 1.196085 -1.117407 -27.057245 -1.031424 -1.957083 -39.441061 9.022808 -18.175483 25.371330 -0.040113 29.216503 20.768095 10.155048 20.789603 6.266855 -3.335350 -7.266228 -8.495356 0.028892 -14.948733 -21.680147 -1.530924 4.559201 
31.344688 0.000000 -65.325401 -0.000000 0.000000 -0.000000 1.715907 -10.053119 2.055790 -0.129708 -0.049032 -0.160139 0.351283 1.439628 0.277526 0.409964 1.987394 0.103836 0.217962 1.359566 -0.130933 -0.907364 0.493914 -0.035469 -1.646142 0.926904 -0.254747 -0.049112 -1.694299 0.441997 -2.848584 -0.151716 -0.312128 0.400185 0.583651 -0.255316 0.420835 -0.172843 0.324765 -0.059627 -0.952670 0.147740 1.029171 -1.089871 1.779755 0.150037 -0.036015 -0.027517 0.006198 -0.543731 -0.210888 -6.175793 1.483375 0.355650 -30.159004 -1.087688 -2.206597 -31.927999 4.347692 -15.070978 21.869043 0.963923 19.100283 19.976439 10.368843 20.291608 5.848722 -3.080565 -6.777232 -7.748616 -0.558549 -15.763042 -21.884189 -1.562546 4.471662 
33.452393 0.000000 -68.798698 -0.000000 0.000000 -0.000000 1.815036 -9.369844 2.539282 -0.118388 -0.046405 -0.146161 0.121798 1.229941 -0.118924 0.087851 1.612352 -0.386858 -0.000599 1.049296 -0.418504 -0.709753 0.423859 -0.017292 -1.314196 0.800635 -0.153707 -0.031309 -1.307005 0.350114 -1.922058 -0.681729 0.406881 0.431572 0.629192 -0.275442 0.356173 -0.111579 0.275345 -0.058484 -0.665543 0.087540 1.091174 -1.384133 2.488837 0.282973 -0.067998 -0.051818 -0.012869 -0.538925 -0.229936 0.320961 2.309570 3.519598 -31.008584 -1.100745 -2.275436 -21.239416 -3.175878 -9.605338 16.089067 2.799807 1.776238 18.491931 11.173538 19.365084 5.300020 -2.753521 -6.136569 -6.442956 -2.133635 -17.025520 -22.876513 -1.600751 3.153967 
34.368092 0.000000 -70.669998 -0.000000 0.000000 -0.000000 1.901397 -8.893548 2.745898 -0.112680 -0.043730 -0.139129 -0.032914 1.151697 -0.293535 -0.129917 1.463606 -0.602555 -0.148632 0.921111 -0.544832 -0.539261 0.352931 -0.019721 -1.012171 0.674685 -0.106688 -0.041298 -1.130712 0.292388 -1.316267 -1.079160 0.614137 0.400519 0.584120 -0.255542 0.324103 -0.080554 0.264359 0.010495 -0.574170 0.137720 0.962956 -1.403895 2.566602 0.385953 -0.092810 -0.070602 0.005679 -0.502757 -0.227311 2.753024 2.037235 5.040533 -27.819552 -1.046502 -2.018117 -18.743588 -4.821280 -8.643750 14.721428 3.043160 -3.050902 17.834715 11.504395 18.880455 4.974516 -2.563355 -5.757052 -6.074369 -2.890878 -17.844296 -22.368065 -1.611347 3.750077 
35.441692 0.000000 -72.314102 -0.000000 0.000000 -0.000000 1.960094 -8.479872 2.931790 -0.107034 -0.040794 -0.132160 -0.179828 1.107197 -0.446444 -0.338524 1.366160 -0.795453 -0.291473 0.829824 -0.660877 -0.385385 0.279770 0.006994 -0.750411 0.534141 -0.015838 -0.079060 -0.951728 0.210084 -0.654776 -1.443508 0.768309 0.351934 0.513570 -0.224391 0.302090 -0.056033 0.244507 0.085282 -0.485581 0.194291 0.775120 -1.291138 2.521796 0.448471 -0.107879 -0.081985 0.024164 -0.445056 -0.218558 4.479965 1.586195 6.239769 -22.136331 -0.914691 -1.568445 -17.629517 -5.311556 -8.291365 12.645700 2.757554 -6.412991 17.316433 11.797832 18.230811 4.496550 -2.289308 -5.200451 -5.676711 -3.658851 -18.696892 -22.450760 -1.654233 3.952262 
37.322384 0.000000 -75.823097 -0.000000 0.000000 -0.000000 1.877407 -8.069197 3.099416 -0.095753 -0.036523 -0.118233 -0.346660 1.136109 -0.645826 -0.583363 1.362627 -1.065175 -0.463563 0.792622 -0.837150 -0.257207 0.152689 0.129538 -0.571553 0.263461 0.222116 -0.113415 -0.631778 0.090005 0.347917 -1.871255 0.907471 0.276867 0.404385 -0.176384 0.331138 -0.051911 0.265245 0.228205 -0.333412 0.306178 0.119956 -0.771650 2.193259 0.389352 -0.093624 -0.071208 0.029570 -0.315678 -0.174548 5.434357 0.832297 7.463973 -4.007876 -0.209631 -0.256005 -17.780910 -4.031465 -8.481303 2.566996 0.486788 -2.376877 16.657501 12.228288 16.631888 3.163492 -1.556855 -3.652258 -4.683303 -5.019901 -20.466061 -23.510133 -1.753022 3.368147 
38.266384 0.000000 -77.572502 -0.000000 0.000000 -0.000000 1.721651 -8.029033 2.996241 -0.090077 -0.033391 -0.111236 -0.345928 1.196946 -0.669908 -0.588865 1.444716 -1.110095 -0.470976 0.843098 -0.875380 -0.264821 0.107963 0.179452 -0.603558 0.165449 0.297997 -0.122120 -0.520672 0.050709 0.625429 -1.931030 1.043710 0.280774 0.410063 -0.178869 0.322257 -0.027246 0.266988 0.290203 -0.333188 0.369257 -0.329935 -0.488733 1.951235 0.278573 -0.066930 -0.051010 0.018390 -0.224767 -0.147358 4.429172 0.916647 7.696013 7.423393 0.433520 0.433070 -17.992221 -2.949544 -8.729708 -0.699012 -0.077194 0.557714 16.440284 12.423096 15.840764 2.365151 -1.140253 -2.727827 -4.133879 -5.648562 -21.407517 -23.754589 -1.780488 3.200754 
39.284683 0.000000 -79.410400 -0.000000 0.000000 -0.000000 1.521409 -7.989196 2.782780 -0.084467 -0.030483 -0.104307 -0.306500 1.263580 -0.653910 -0.539193 1.544964 -1.103479 -0.440344 0.912724 -0.881871 -0.279352 0.079748 0.214360 -0.640997 0.101763 0.349102 -0.161628 -0.433821 -0.007274 0.845047 -1.916369 1.280736 0.297489 0.434388 -0.189553 0.262623 0.029758 0.215166 0.339333 -0.389305 0.432156 -0.779669 -0.239330 1.671920 0.134889 -0.032373 -0.024736 0.009569 -0.089072 -0.112798 2.477492 1.360415 7.951108 19.489993 1.246593 1.007249 -18.173351 -2.038360 -9.130821 0.000002 0.000003 -0.000003 16.261279 12.568471 15.031120 1.453795 -0.684442 -1.674865 -3.514890 -6.302400 -22.357040 -24.017276 -1.808530 3.028372 
41.284386 0.000000 -82.911400 -0.000000 0.000000 -0.000000 1.208468 -7.534161 2.282521 -0.073289 -0.027731 -0.090489 -0.191242 1.286462 -0.619151 -0.381426 1.596864 -1.068384 -0.333900 0.956137 -0.866676 -0.279115 0.062651 0.293642 -0.666699 0.040841 0.485963 -0.169571 -0.242590 -0.069438 0.918118 -1.696697 1.279565 0.244564 0.357354 -0.155750 0.196720 0.058532 0.160888 0.414303 -0.440674 0.520138 -1.424012 0.033107 1.039592 -0.095700 0.022934 0.017596 0.064125 0.181727 0.058989 -0.515435 0.606119 8.085511 35.668785 2.490105 1.487427 -18.373634 -1.141471 -9.934764 -0.000002 -0.000002 -0.000000 15.782091 12.569633 13.049654 -0.712748 0.316775 0.819114 -1.916921 -7.872251 -24.086671 -24.522695 -1.860232 2.696487 
42.243885 0.000000 -84.695198 -0.000000 0.000000 -0.000000 1.069719 -7.392402 2.016226 -0.067661 -0.025614 -0.083541 -0.131211 1.318191 -0.555079 -0.298483 1.659815 -0.990713 -0.277767 1.008817 -0.822351 -0.243363 0.033916 0.271470 -0.589155 -0.005170 0.451203 -0.195504 -0.158519 -0.115546 0.927581 -1.471848 1.042178 0.191315 0.279716 -0.121760 0.204672 0.048402 0.184395 0.405119 -0.439829 0.510578 -1.486993 0.168665 0.617208 -0.197694 0.047337 0.036394 0.100429 0.231833 0.107971 0.299967 0.002125 7.422186 35.664492 2.489771 1.487353 -17.209370 -0.846616 -9.758861 0.000003 -0.000001 -0.000001 15.402965 12.506076 11.923997 -1.759303 0.760007 2.019662 -1.063665 -8.569457 -24.769621 -24.761558 -1.883657 2.539542 
43.231186 0.000000 -86.396797 -0.000000 0.000000 -0.000000 0.904642 -7.134305 1.645501 -0.061959 -0.022903 -0.076519 -0.072213 1.299627 -0.442743 -0.211116 1.662729 -0.837399 -0.214953 1.028758 -0.721345 -0.221355 0.011711 0.231361 -0.526640 -0.034809 0.379785 -0.249644 -0.110499 -0.174456 0.990162 -1.115067 0.808489 0.143834 0.210425 -0.091489 0.201452 0.029903 0.168307 0.358993 -0.474571 0.471021 -1.392393 0.353267 0.247272 -0.298836 0.071503 0.055064 0.126137 0.390160 0.146091 -0.167379 -0.602972 6.856258 35.664495 2.489770 1.487355 -17.830976 -0.659728 -9.396830 -0.000003 0.000000 -0.000000 14.932858 12.288531 10.838099 -2.759501 1.159615 3.164706 -0.218093 -9.230272 -25.266437 -24.988836 -1.905299 2.390229 
44.293686 0.000000 -88.199600 -0.000000 0.000000 -0.000000 0.687214 -6.696244 1.370473 -0.056390 -0.020090 -0.069630 -0.014447 1.220946 -0.362919 -0.122619 1.576937 -0.717533 -0.149288 0.985728 -0.634185 -0.185458 0.013657 0.177731 -0.437479 -0.014718 0.294793 -0.362879 -0.016812 -0.295381 1.033584 -0.844280 0.628042 0.174050 0.254522 -0.110755 0.246886 0.056613 0.248323 0.324295 -0.408164 0.420863 -1.142129 0.467795 0.031473 -0.467771 0.111791 0.086365 0.129910 0.379918 0.133398 -0.893956 -0.492736 6.547014 35.664495 2.489769 1.487356 -21.137409 -0.623670 -8.960071 0.000003 -0.000002 0.000000 14.292116 11.754281 9.825498 -3.400589 1.403615 3.897542 0.487996 -9.679726 -25.441497 -25.202582 -1.925129 2.249681 
